<svg width="29" height="18" viewBox="0 0 29 18" fill="none" xmlns="http://www.w3.org/2000/svg">
<path d="M22.7141 3.85714C22.7141 5.42008 21.4279 6.71429 19.7727 6.71429C18.1132 6.71429 16.8182 5.41578 16.8182 3.85714C16.8182 2.29851 18.1132 1 19.7727 1C21.4279 1 22.7141 2.2942 22.7141 3.85714ZM12.1686 3.85714C12.1686 5.42008 10.8824 6.71429 9.22727 6.71429C7.56772 6.71429 6.27273 5.41578 6.27273 3.85714C6.27273 2.29851 7.56772 1 9.22727 1C10.8824 1 12.1686 2.2942 12.1686 3.85714ZM1 14.7857C1 14.4139 1.18298 14.0081 1.67862 13.5622C2.18001 13.1112 2.92353 12.6959 3.82548 12.3439C5.62995 11.6396 7.81324 11.2857 9.22727 11.2857C10.6413 11.2857 12.8246 11.6396 14.6291 12.3439C15.531 12.6959 16.2745 13.1112 16.7759 13.5622C17.2716 14.0081 17.4545 14.4139 17.4545 14.7857V17H1V14.7857ZM22.0909 14.7857C22.0909 13.4438 21.6526 12.3047 20.9591 11.352C22.2544 11.4845 23.821 11.8156 25.1745 12.3439C26.0765 12.6959 26.82 13.1112 27.3214 13.5622C27.817 14.0081 28 14.4139 28 14.7857V17H22.0909V14.7857Z" stroke="#7A7A7A" stroke-width="2"/>
</svg>
