<svg width="48" height="48" viewBox="0 0 48 48" fill="none" xmlns="http://www.w3.org/2000/svg">
<path d="M17 30H31M17 36H24M38 4H10C9.46957 4 8.96086 4.21071 8.58579 4.58579C8.21071 4.96086 8 5.46957 8 6V42C8 42.5304 8.21071 43.0391 8.58579 43.4142C8.96086 43.7893 9.46957 44 10 44H38C38.5304 44 39.0391 43.7893 39.4142 43.4142C39.7893 43.0391 40 42.5304 40 42V6C40 5.46957 39.7893 4.96086 39.4142 4.58579C39.0391 4.21071 38.5304 4 38 4V4Z" stroke="black" stroke-width="4" stroke-linecap="round" stroke-linejoin="round"/>
<path d="M30 13L22 21L18 17" stroke="black" stroke-width="4" stroke-linecap="round" stroke-linejoin="round"/>
</svg>
