<svg width="24" height="27" viewBox="0 0 24 27" fill="none" xmlns="http://www.w3.org/2000/svg">
<path d="M14.8184 3.03672L15.0556 3.7H15.76H21.3333C22.236 3.7 23 4.45554 23 5.4V24.3C23 25.2445 22.236 26 21.3333 26H2.66667C1.76396 26 1 25.2445 1 24.3V5.4C1 4.45554 1.76396 3.7 2.66667 3.7H8.24H8.94442L9.18161 3.03672C9.61004 1.83862 10.72 1 12 1C13.28 1 14.39 1.83862 14.8184 3.03672ZM14.6667 22.6H15.6667V21.6V18.9V17.9H14.6667H5.33333H4.33333V18.9V21.6V22.6H5.33333H14.6667ZM18.6667 17.2H19.6667V16.2V13.5V12.5H18.6667H5.33333H4.33333V13.5V16.2V17.2H5.33333H18.6667ZM18.6667 11.8H19.6667V10.8V8.1V7.1H18.6667H5.33333H4.33333V8.1V10.8V11.8H5.33333H18.6667ZM14.3333 4.05C14.3333 2.76696 13.2973 1.7 12 1.7C10.7027 1.7 9.66667 2.76696 9.66667 4.05C9.66667 5.33304 10.7027 6.4 12 6.4C13.2973 6.4 14.3333 5.33304 14.3333 4.05Z" stroke="#7A7A7A" stroke-width="2"/>
</svg>
