<svg width="45" height="44" viewBox="0 0 45 44" fill="none" xmlns="http://www.w3.org/2000/svg">
<path d="M21.1816 6.53125H23.8184C24.0527 6.53125 24.1699 6.64583 24.1699 6.875V37.125C24.1699 37.3542 24.0527 37.4688 23.8184 37.4688H21.1816C20.9473 37.4688 20.8301 37.3542 20.8301 37.125V6.875C20.8301 6.64583 20.9473 6.53125 21.1816 6.53125Z" fill="white"/>
<path d="M7.73438 20.3672H37.2656C37.5 20.3672 37.6172 20.4818 37.6172 20.7109V23.2891C37.6172 23.5182 37.5 23.6328 37.2656 23.6328H7.73438C7.5 23.6328 7.38281 23.5182 7.38281 23.2891V20.7109C7.38281 20.4818 7.5 20.3672 7.73438 20.3672Z" fill="white"/>
</svg>
