<svg width="58" height="53" viewBox="0 0 58 53" fill="none" xmlns="http://www.w3.org/2000/svg">
<path d="M51.2031 26.5H48.0312C47.782 26.5 47.5781 26.6863 47.5781 26.9141V43.4766H10.4219V9.52344H28.5469C28.7961 9.52344 29 9.33711 29 9.10938V6.21094C29 5.9832 28.7961 5.79688 28.5469 5.79688H8.15625C7.15371 5.79688 6.34375 6.53701 6.34375 7.45312V45.5469C6.34375 46.463 7.15371 47.2031 8.15625 47.2031H49.8438C50.8463 47.2031 51.6562 46.463 51.6562 45.5469V26.9141C51.6562 26.6863 51.4523 26.5 51.2031 26.5Z" fill="#FAF4FF"/>
<path d="M20.1584 27.6853L20.0508 33.8393C20.0451 34.2999 20.4529 34.6777 20.957 34.6777H20.9797L27.6633 34.5276C27.7766 34.5225 27.8898 34.4811 27.9691 34.4086L51.526 12.9291C51.7016 12.7687 51.7016 12.5047 51.526 12.3442L44.4855 5.91592C44.3949 5.83311 44.2816 5.79688 44.1627 5.79688C44.0437 5.79688 43.9305 5.83828 43.8398 5.91592L20.2887 27.3954C20.2069 27.4736 20.1603 27.5771 20.1584 27.6853ZM23.7551 28.9067L44.1627 10.2998L46.7229 12.6341L26.3039 31.2514L23.7154 31.3083L23.7551 28.9067Z" fill="#FAF4FF"/>
</svg>
